# xmcd CD database file generated by Grip 3.3.1
# 
# Track frame offsets:
#       150
#       67462
#       128037
#       173687
#       220672
# 
# Disc length: 4116 seconds
# 
# Revision: 1
# Processed by: cddbd v1.5.2PL0 Copyright (c) Steve Scherf et al.
# Submitted via: Grip 3.3.1
# 
DISCID=47101205
DTITLE=Pieter Wispelwey, Brett Dean - One of a Kind
DYEAR=1998
DGENRE=Blues
TTITLE0=Act 1, part 1
TTITLE1=Act 1, part 2
TTITLE2=Act 2, part 1
TTITLE3=Act 2, part 2 
TTITLE4=Act 3
EXTD=
EXTT0=
EXTT1=
EXTT2=
EXTT3=
EXTT4=
PLAYORDER=
